<svg data-v-fde0c5aa="" xmlns="http://www.w3.org/2000/svg" viewBox="0 0 300 300" class="iconLeft"><!----><defs data-v-fde0c5aa=""><!----></defs><rect data-v-fde0c5aa="" fill="transparent" x="0" y="0" width="300px" height="300px" class="logo-background-square"></rect><defs data-v-fde0c5aa=""><!----></defs><g data-v-fde0c5aa="" id="31262b96-6d25-4931-a3c4-cab91e6f6914" fill="#000000" transform="matrix(1.9194902664013602,0,0,1.9194902664013602,92.27494110305467,125.12340698949991)"><path d="M4.98 10.26L4.98 10.26L4.98 10.26Q6.00 10.26 6.72 10.49L6.72 10.49L6.72 10.49Q7.44 10.71 7.91 11.09L7.91 11.09L7.91 11.09Q8.37 11.48 8.58 11.99L8.58 11.99L8.58 11.99Q8.79 12.50 8.79 13.08L8.79 13.08L8.79 13.08Q8.79 13.32 8.72 13.50L8.72 13.50L8.72 13.50Q8.64 13.69 8.51 13.82L8.51 13.82L8.51 13.82Q8.39 13.95 8.21 14.01L8.21 14.01L8.21 14.01Q8.03 14.08 7.83 14.08L7.83 14.08L7.83 14.08Q7.65 14.08 7.46 14.02L7.46 14.02L7.46 14.02Q7.28 13.96 7.12 13.82L7.12 13.82L7.12 13.82Q6.95 13.69 6.82 13.47L6.82 13.47L6.82 13.47Q6.69 13.25 6.62 12.93L6.62 12.93L6.62 12.93Q6.57 12.71 6.46 12.54L6.46 12.54L6.46 12.54Q6.35 12.37 6.21 12.25L6.21 12.25L6.21 12.25Q6.07 12.13 5.90 12.07L5.90 12.07L5.90 12.07Q5.74 12.01 5.57 12.01L5.57 12.01L5.57 12.01Q5.28 12.01 5.06 12.13L5.06 12.13L5.06 12.13Q4.85 12.26 4.70 12.49L4.70 12.49L4.70 12.49Q4.56 12.73 4.49 13.07L4.49 13.07L4.49 13.07Q4.42 13.41 4.42 13.83L4.42 13.83L4.42 13.83Q4.42 15.47 4.92 16.26L4.92 16.26L4.92 16.26Q5.41 17.05 6.51 17.05L6.51 17.05L6.51 17.05Q6.82 17.05 7.15 16.96L7.15 16.96L7.15 16.96Q7.48 16.88 7.76 16.78L7.76 16.78L7.76 16.78Q8.04 16.67 8.24 16.59L8.24 16.59L8.24 16.59Q8.45 16.50 8.52 16.50L8.52 16.50L8.52 16.50Q8.68 16.50 8.77 16.64L8.77 16.64L8.77 16.64Q8.86 16.77 8.86 16.94L8.86 16.94L8.86 16.94Q8.86 16.99 8.86 17.04L8.86 17.04L8.86 17.04Q8.85 17.09 8.83 17.14L8.83 17.14L8.83 17.14Q8.63 17.64 8.27 18.07L8.27 18.07L8.27 18.07Q7.91 18.50 7.41 18.82L7.41 18.82L7.41 18.82Q6.90 19.13 6.27 19.31L6.27 19.31L6.27 19.31Q5.63 19.49 4.89 19.49L4.89 19.49L4.89 19.49Q4.12 19.49 3.49 19.31L3.49 19.31L3.49 19.31Q2.85 19.13 2.34 18.80L2.34 18.80L2.34 18.80Q1.83 18.48 1.45 18.04L1.45 18.04L1.45 18.04Q1.07 17.60 0.82 17.09L0.82 17.09L0.82 17.09Q0.56 16.57 0.43 16.01L0.43 16.01L0.43 16.01Q0.31 15.44 0.31 14.87L0.31 14.87L0.31 14.87Q0.31 14.29 0.44 13.72L0.44 13.72L0.44 13.72Q0.57 13.15 0.83 12.63L0.83 12.63L0.83 12.63Q1.09 12.12 1.48 11.69L1.48 11.69L1.48 11.69Q1.87 11.25 2.39 10.93L2.39 10.93L2.39 10.93Q2.91 10.62 3.55 10.44L3.55 10.44L3.55 10.44Q4.20 10.26 4.98 10.26ZM14.61 8.02L14.61 16.69L14.61 16.69Q14.61 16.97 14.68 17.12L14.68 17.12L14.68 17.12Q14.76 17.28 14.87 17.36L14.87 17.36L14.87 17.36Q14.98 17.44 15.11 17.47L15.11 17.47L15.11 17.47Q15.24 17.50 15.35 17.53L15.35 17.53L15.35 17.53Q15.46 17.57 15.54 17.63L15.54 17.63L15.54 17.63Q15.61 17.70 15.61 17.85L15.61 17.85L15.61 17.85Q15.61 18.63 14.81 18.97L14.81 18.97L14.81 18.97Q14 19.32 12.48 19.32L12.48 19.32L12.48 19.32Q11.74 19.32 11.18 19.24L11.18 19.24L11.18 19.24Q10.61 19.15 10.22 18.97L10.22 18.97L10.22 18.97Q9.83 18.79 9.63 18.52L9.63 18.52L9.63 18.52Q9.43 18.24 9.43 17.85L9.43 17.85L9.43 17.85Q9.43 17.70 9.50 17.63L9.50 17.63L9.50 17.63Q9.57 17.57 9.68 17.53L9.68 17.53L9.68 17.53Q9.80 17.50 9.92 17.47L9.92 17.47L9.92 17.47Q10.05 17.45 10.16 17.37L10.16 17.37L10.16 17.37Q10.27 17.29 10.35 17.14L10.35 17.14L10.35 17.14Q10.42 16.99 10.42 16.71L10.42 16.71L10.42 9.03L10.42 9.03Q10.42 8.75 10.35 8.60L10.35 8.60L10.35 8.60Q10.27 8.46 10.16 8.38L10.16 8.38L10.16 8.38Q10.05 8.30 9.92 8.27L9.92 8.27L9.92 8.27Q9.80 8.24 9.68 8.21L9.68 8.21L9.68 8.21Q9.57 8.18 9.50 8.11L9.50 8.11L9.50 8.11Q9.43 8.05 9.43 7.90L9.43 7.90L9.43 7.90Q9.43 7.51 9.63 7.23L9.63 7.23L9.63 7.23Q9.83 6.95 10.22 6.77L10.22 6.77L10.22 6.77Q10.61 6.59 11.18 6.51L11.18 6.51L11.18 6.51Q11.74 6.43 12.48 6.43L12.48 6.43L12.48 6.43Q13.21 6.43 13.64 6.50L13.64 6.50L13.64 6.50Q14.06 6.58 14.28 6.76L14.28 6.76L14.28 6.76Q14.49 6.94 14.55 7.25L14.55 7.25L14.55 7.25Q14.61 7.55 14.61 8.02L14.61 8.02ZM21.36 12.01L21.36 12.01L21.36 12.01Q21.14 12.01 20.95 12.11L20.95 12.11L20.95 12.11Q20.76 12.21 20.62 12.41L20.62 12.41L20.62 12.41Q20.48 12.62 20.40 12.94L20.40 12.94L20.40 12.94Q20.32 13.25 20.32 13.69L20.32 13.69L22.50 13.69L22.50 13.69Q22.50 13.21 22.43 12.89L22.43 12.89L22.43 12.89Q22.35 12.56 22.21 12.37L22.21 12.37L22.21 12.37Q22.07 12.17 21.85 12.09L21.85 12.09L21.85 12.09Q21.64 12.01 21.36 12.01ZM20.86 10.26L20.86 10.26L20.86 10.26Q21.77 10.26 22.51 10.53L22.51 10.53L22.51 10.53Q23.24 10.81 23.76 11.29L23.76 11.29L23.76 11.29Q24.27 11.76 24.55 12.41L24.55 12.41L24.55 12.41Q24.83 13.06 24.83 13.80L24.83 13.80L24.83 13.80Q24.83 14.11 24.74 14.28L24.74 14.28L24.74 14.28Q24.66 14.45 24.50 14.53L24.50 14.53L24.50 14.53Q24.34 14.62 24.11 14.64L24.11 14.64L24.11 14.64Q23.88 14.66 23.58 14.66L23.58 14.66L20.30 14.66L20.30 14.66Q20.30 15.41 20.45 15.88L20.45 15.88L20.45 15.88Q20.60 16.34 20.88 16.60L20.88 16.60L20.88 16.60Q21.15 16.86 21.53 16.96L21.53 16.96L21.53 16.96Q21.92 17.05 22.38 17.05L22.38 17.05L22.38 17.05Q22.63 17.05 22.89 17.00L22.89 17.00L22.89 17.00Q23.15 16.95 23.40 16.88L23.40 16.88L23.40 16.88Q23.64 16.80 23.84 16.72L23.84 16.72L23.84 16.72Q24.05 16.64 24.19 16.56L24.19 16.56L24.19 16.56Q24.29 16.50 24.40 16.50L24.40 16.50L24.40 16.50Q24.55 16.50 24.64 16.64L24.64 16.64L24.64 16.64Q24.73 16.77 24.73 16.93L24.73 16.93L24.73 16.93Q24.73 16.99 24.73 17.04L24.73 17.04L24.73 17.04Q24.72 17.08 24.70 17.13L24.70 17.13L24.70 17.13Q24.50 17.64 24.16 18.07L24.16 18.07L24.16 18.07Q23.82 18.50 23.33 18.82L23.33 18.82L23.33 18.82Q22.84 19.13 22.20 19.31L22.20 19.31L22.20 19.31Q21.55 19.49 20.75 19.49L20.75 19.49L20.75 19.49Q19.99 19.49 19.36 19.31L19.36 19.31L19.36 19.31Q18.72 19.13 18.21 18.80L18.21 18.80L18.21 18.80Q17.71 18.48 17.32 18.04L17.32 18.04L17.32 18.04Q16.94 17.60 16.69 17.09L16.69 17.09L16.69 17.09Q16.43 16.57 16.31 16.01L16.31 16.01L16.31 16.01Q16.18 15.44 16.18 14.87L16.18 14.87L16.18 14.87Q16.18 14.29 16.31 13.72L16.31 13.72L16.31 13.72Q16.44 13.15 16.70 12.63L16.70 12.63L16.70 12.63Q16.96 12.12 17.35 11.69L17.35 11.69L17.35 11.69Q17.74 11.25 18.26 10.93L18.26 10.93L18.26 10.93Q18.78 10.62 19.43 10.44L19.43 10.44L19.43 10.44Q20.08 10.26 20.86 10.26ZM29.97 17.92L29.97 17.92L29.97 17.92Q30.19 17.92 30.33 17.85L30.33 17.85L30.33 17.85Q30.47 17.77 30.55 17.64L30.55 17.64L30.55 17.64Q30.63 17.51 30.65 17.31L30.65 17.31L30.65 17.31Q30.67 17.12 30.67 16.87L30.67 16.87L30.67 16.87Q30.67 16.66 30.67 16.33L30.67 16.33L30.67 16.33Q30.66 16.00 30.65 15.69L30.65 15.69L30.65 15.69Q30.64 15.32 30.63 14.92L30.63 14.92L30.63 14.92Q30.54 14.91 30.45 14.90L30.45 14.90L30.45 14.90Q30.37 14.89 30.28 14.89L30.28 14.89L30.28 14.89Q29.93 14.89 29.70 15.03L29.70 15.03L29.70 15.03Q29.46 15.17 29.32 15.42L29.32 15.42L29.32 15.42Q29.18 15.67 29.12 16.01L29.12 16.01L29.12 16.01Q29.06 16.34 29.06 16.74L29.06 16.74L29.06 16.74Q29.06 16.98 29.09 17.20L29.09 17.20L29.09 17.20Q29.11 17.41 29.21 17.57L29.21 17.57L29.21 17.57Q29.31 17.73 29.49 17.82L29.49 17.82L29.49 17.82Q29.67 17.92 29.97 17.92ZM33.26 19.32L33.26 19.32L33.26 19.32Q32.92 19.32 32.57 19.28L32.57 19.28L32.57 19.28Q32.22 19.24 31.91 19.13L31.91 19.13L31.91 19.13Q31.60 19.01 31.34 18.79L31.34 18.79L31.34 18.79Q31.08 18.57 30.90 18.21L30.90 18.21L30.90 18.21Q30.76 18.53 30.46 18.77L30.46 18.77L30.46 18.77Q30.15 19.01 29.77 19.17L29.77 19.17L29.77 19.17Q29.38 19.33 28.95 19.41L28.95 19.41L28.95 19.41Q28.53 19.49 28.14 19.49L28.14 19.49L28.14 19.49Q27.45 19.49 26.93 19.33L26.93 19.33L26.93 19.33Q26.41 19.16 26.05 18.86L26.05 18.86L26.05 18.86Q25.70 18.55 25.52 18.13L25.52 18.13L25.52 18.13Q25.34 17.71 25.34 17.18L25.34 17.18L25.34 17.18Q25.34 16.56 25.55 16.00L25.55 16.00L25.55 16.00Q25.76 15.44 26.26 15.03L26.26 15.03L26.26 15.03Q26.76 14.61 27.60 14.37L27.60 14.37L27.60 14.37Q28.44 14.12 29.71 14.12L29.71 14.12L30.65 14.12L30.65 14.12Q30.65 13.36 30.59 12.87L30.59 12.87L30.59 12.87Q30.54 12.37 30.43 12.07L30.43 12.07L30.43 12.07Q30.32 11.78 30.16 11.66L30.16 11.66L30.16 11.66Q30.00 11.55 29.76 11.55L29.76 11.55L29.76 11.55Q29.50 11.55 29.33 11.70L29.33 11.70L29.33 11.70Q29.16 11.86 29.05 12.16L29.05 12.16L29.05 12.16Q28.94 12.46 28.90 12.88L28.90 12.88L28.90 12.88Q28.85 13.30 28.85 13.83L28.85 13.83L28.85 13.83Q28.56 13.83 28.24 13.82L28.24 13.82L28.24 13.82Q27.91 13.81 27.59 13.77L27.59 13.77L27.59 13.77Q27.28 13.73 26.99 13.64L26.99 13.64L26.99 13.64Q26.71 13.56 26.49 13.41L26.49 13.41L26.49 13.41Q26.27 13.26 26.14 13.04L26.14 13.04L26.14 13.04Q26.01 12.81 26.01 12.49L26.01 12.49L26.01 12.49Q26.01 12.04 26.25 11.63L26.25 11.63L26.25 11.63Q26.48 11.23 26.97 10.93L26.97 10.93L26.97 10.93Q27.46 10.62 28.21 10.44L28.21 10.44L28.21 10.44Q28.96 10.26 30.00 10.26L30.00 10.26L30.00 10.26Q31.21 10.26 32.09 10.51L32.09 10.51L32.09 10.51Q32.96 10.75 33.53 11.25L33.53 11.25L33.53 11.25Q34.09 11.74 34.36 12.49L34.36 12.49L34.36 12.49Q34.63 13.23 34.63 14.24L34.63 14.24L34.63 16.66L34.63 16.66Q34.63 16.95 34.71 17.12L34.71 17.12L34.71 17.12Q34.79 17.28 34.90 17.37L34.90 17.37L34.90 17.37Q35.01 17.45 35.15 17.49L35.15 17.49L35.15 17.49Q35.29 17.52 35.40 17.56L35.40 17.56L35.40 17.56Q35.51 17.60 35.59 17.66L35.59 17.66L35.59 17.66Q35.67 17.73 35.67 17.88L35.67 17.88L35.67 17.88Q35.67 18.56 35.06 18.94L35.06 18.94L35.06 18.94Q34.45 19.32 33.26 19.32ZM41.34 13.06L41.32 16.69L41.32 16.69Q41.32 16.97 41.40 17.12L41.40 17.12L41.40 17.12Q41.47 17.28 41.59 17.36L41.59 17.36L41.59 17.36Q41.70 17.44 41.83 17.47L41.83 17.47L41.83 17.47Q41.96 17.50 42.07 17.53L42.07 17.53L42.07 17.53Q42.18 17.57 42.26 17.63L42.26 17.63L42.26 17.63Q42.33 17.70 42.33 17.85L42.33 17.85L42.33 17.85Q42.33 18.63 41.53 18.97L41.53 18.97L41.53 18.97Q40.72 19.32 39.20 19.32L39.20 19.32L39.20 19.32Q38.46 19.32 37.89 19.24L37.89 19.24L37.89 19.24Q37.32 19.15 36.93 18.97L36.93 18.97L36.93 18.97Q36.54 18.79 36.34 18.52L36.34 18.52L36.34 18.52Q36.14 18.24 36.14 17.85L36.14 17.85L36.14 17.85Q36.14 17.70 36.22 17.63L36.22 17.63L36.22 17.63Q36.29 17.57 36.40 17.53L36.40 17.53L36.40 17.53Q36.51 17.50 36.64 17.47L36.64 17.47L36.64 17.47Q36.77 17.45 36.88 17.37L36.88 17.37L36.88 17.37Q36.99 17.29 37.06 17.14L37.06 17.14L37.06 17.14Q37.14 16.99 37.14 16.71L37.14 16.71L37.14 13.06L37.14 13.06Q37.14 12.79 37.06 12.64L37.06 12.64L37.06 12.64Q36.99 12.49 36.88 12.41L36.88 12.41L36.88 12.41Q36.77 12.33 36.64 12.30L36.64 12.30L36.64 12.30Q36.51 12.28 36.40 12.24L36.40 12.24L36.40 12.24Q36.29 12.21 36.22 12.14L36.22 12.14L36.22 12.14Q36.14 12.08 36.14 11.93L36.14 11.93L36.14 11.93Q36.14 11.54 36.34 11.26L36.34 11.26L36.34 11.26Q36.54 10.99 36.93 10.80L36.93 10.80L36.93 10.80Q37.32 10.62 37.89 10.54L37.89 10.54L37.89 10.54Q38.46 10.46 39.20 10.46L39.20 10.46L39.20 10.46Q39.87 10.46 40.26 10.57L40.26 10.57L40.26 10.57Q40.66 10.68 40.88 10.82L40.88 10.82L40.88 10.82Q41.13 10.99 41.23 11.18L41.23 11.18L41.23 11.18Q41.58 10.93 42.08 10.73L42.08 10.73L42.08 10.73Q42.50 10.55 43.11 10.40L43.11 10.40L43.11 10.40Q43.72 10.26 44.54 10.26L44.54 10.26L44.54 10.26Q45.29 10.26 45.84 10.45L45.84 10.45L45.84 10.45Q46.38 10.64 46.76 10.95L46.76 10.95L46.76 10.95Q47.14 11.27 47.37 11.69L47.37 11.69L47.37 11.69Q47.61 12.11 47.73 12.57L47.73 12.57L47.73 12.57Q47.86 13.03 47.90 13.50L47.90 13.50L47.90 13.50Q47.95 13.97 47.95 14.39L47.95 14.39L47.95 16.65L47.95 16.65Q47.95 16.94 48.02 17.10L48.02 17.10L48.02 17.10Q48.10 17.26 48.21 17.35L48.21 17.35L48.21 17.35Q48.33 17.43 48.46 17.46L48.46 17.46L48.46 17.46Q48.60 17.49 48.71 17.53L48.71 17.53L48.71 17.53Q48.83 17.57 48.90 17.63L48.90 17.63L48.90 17.63Q48.98 17.70 48.98 17.85L48.98 17.85L48.98 17.85Q48.98 18.63 48.18 18.97L48.18 18.97L48.18 18.97Q47.37 19.32 45.85 19.32L45.85 19.32L45.85 19.32Q45.11 19.32 44.54 19.24L44.54 19.24L44.54 19.24Q43.98 19.15 43.59 18.97L43.59 18.97L43.59 18.97Q43.20 18.79 42.99 18.52L42.99 18.52L42.99 18.52Q42.79 18.24 42.79 17.85L42.79 17.85L42.79 17.85Q42.79 17.70 42.87 17.63L42.87 17.63L42.87 17.63Q42.94 17.57 43.06 17.53L43.06 17.53L43.06 17.53Q43.18 17.50 43.31 17.47L43.31 17.47L43.31 17.47Q43.44 17.45 43.55 17.37L43.55 17.37L43.55 17.37Q43.67 17.29 43.74 17.14L43.74 17.14L43.74 17.14Q43.82 16.99 43.82 16.71L43.82 16.71L43.82 13.79L43.82 13.79Q43.82 13.37 43.75 13.04L43.75 13.04L43.75 13.04Q43.69 12.71 43.53 12.48L43.53 12.48L43.53 12.48Q43.38 12.25 43.13 12.13L43.13 12.13L43.13 12.13Q42.88 12.01 42.50 12.01L42.50 12.01L42.50 12.01Q42.26 12.01 42.05 12.09L42.05 12.09L42.05 12.09Q41.84 12.17 41.68 12.31L41.68 12.31L41.68 12.31Q41.52 12.45 41.43 12.64L41.43 12.64L41.43 12.64Q41.34 12.84 41.34 13.06L41.34 13.06ZM54.69 8.02L54.68 11.45L54.68 11.45Q54.84 11.28 55.10 11.07L55.10 11.07L55.10 11.07Q55.36 10.87 55.74 10.69L55.74 10.69L55.74 10.69Q56.12 10.51 56.63 10.38L56.63 10.38L56.63 10.38Q57.14 10.26 57.80 10.26L57.80 10.26L57.80 10.26Q58.57 10.26 59.12 10.46L59.12 10.46L59.12 10.46Q59.66 10.65 60.04 10.98L60.04 10.98L60.04 10.98Q60.42 11.31 60.65 11.73L60.65 11.73L60.65 11.73Q60.88 12.16 61.00 12.63L61.00 12.63L61.00 12.63Q61.13 13.10 61.17 13.57L61.17 13.57L61.17 13.57Q61.21 14.05 61.21 14.47L61.21 14.47L61.21 16.63L61.21 16.63Q61.21 16.93 61.28 17.09L61.28 17.09L61.28 17.09Q61.36 17.25 61.48 17.34L61.48 17.34L61.48 17.34Q61.59 17.42 61.73 17.46L61.73 17.46L61.73 17.46Q61.86 17.49 61.97 17.53L61.97 17.53L61.97 17.53Q62.09 17.57 62.17 17.63L62.17 17.63L62.17 17.63Q62.24 17.70 62.24 17.85L62.24 17.85L62.24 17.85Q62.24 18.63 61.44 18.97L61.44 18.97L61.44 18.97Q60.63 19.32 59.11 19.32L59.11 19.32L59.11 19.32Q58.37 19.32 57.80 19.24L57.80 19.24L57.80 19.24Q57.24 19.15 56.85 18.97L56.85 18.97L56.85 18.97Q56.46 18.79 56.26 18.52L56.26 18.52L56.26 18.52Q56.05 18.24 56.05 17.85L56.05 17.85L56.05 17.85Q56.05 17.70 56.13 17.63L56.13 17.63L56.13 17.63Q56.21 17.57 56.32 17.53L56.32 17.53L56.32 17.53Q56.44 17.49 56.57 17.46L56.57 17.46L56.57 17.46Q56.70 17.43 56.81 17.35L56.81 17.35L56.81 17.35Q56.93 17.27 57.00 17.11L57.00 17.11L57.00 17.11Q57.08 16.95 57.08 16.66L57.08 16.66L57.08 13.87L57.08 13.87Q57.08 13.43 57.02 13.08L57.02 13.08L57.02 13.08Q56.96 12.74 56.81 12.50L56.81 12.50L56.81 12.50Q56.66 12.26 56.40 12.14L56.40 12.14L56.40 12.14Q56.14 12.01 55.76 12.01L55.76 12.01L55.76 12.01Q55.56 12.01 55.40 12.07L55.40 12.07L55.40 12.07Q55.23 12.12 55.09 12.20L55.09 12.20L55.09 12.20Q54.95 12.28 54.85 12.37L54.85 12.37L54.85 12.37Q54.74 12.46 54.67 12.53L54.67 12.53L54.67 16.69L54.67 16.69Q54.67 16.97 54.74 17.12L54.74 17.12L54.74 17.12Q54.82 17.28 54.93 17.36L54.93 17.36L54.93 17.36Q55.04 17.44 55.17 17.47L55.17 17.47L55.17 17.47Q55.30 17.50 55.42 17.53L55.42 17.53L55.42 17.53Q55.53 17.57 55.60 17.63L55.60 17.63L55.60 17.63Q55.68 17.70 55.68 17.85L55.68 17.85L55.68 17.85Q55.68 18.63 54.87 18.97L54.87 18.97L54.87 18.97Q54.07 19.32 52.54 19.32L52.54 19.32L52.54 19.32Q51.07 19.32 50.28 18.97L50.28 18.97L50.28 18.97Q49.49 18.63 49.49 17.85L49.49 17.85L49.49 17.85Q49.49 17.70 49.56 17.63L49.56 17.63L49.56 17.63Q49.64 17.57 49.75 17.53L49.75 17.53L49.75 17.53Q49.86 17.50 49.99 17.47L49.99 17.47L49.99 17.47Q50.11 17.45 50.23 17.37L50.23 17.37L50.23 17.37Q50.34 17.29 50.41 17.14L50.41 17.14L50.41 17.14Q50.48 16.99 50.48 16.71L50.48 16.71L50.48 9.03L50.48 9.03Q50.48 8.75 50.41 8.60L50.41 8.60L50.41 8.60Q50.34 8.46 50.23 8.38L50.23 8.38L50.23 8.38Q50.11 8.30 49.99 8.27L49.99 8.27L49.99 8.27Q49.86 8.24 49.75 8.21L49.75 8.21L49.75 8.21Q49.64 8.18 49.56 8.11L49.56 8.11L49.56 8.11Q49.49 8.05 49.49 7.90L49.49 7.90L49.49 7.90Q49.49 7.12 50.28 6.77L50.28 6.77L50.28 6.77Q51.07 6.43 52.54 6.43L52.54 6.43L52.54 6.43Q53.28 6.43 53.71 6.50L53.71 6.50L53.71 6.50Q54.13 6.58 54.35 6.76L54.35 6.76L54.35 6.76Q54.57 6.94 54.63 7.25L54.63 7.25L54.63 7.25Q54.69 7.55 54.69 8.02L54.69 8.02ZM70.08 16.73L70.09 13.09L70.09 13.09Q70.09 12.81 70.01 12.65L70.01 12.65L70.01 12.65Q69.94 12.50 69.83 12.42L69.83 12.42L69.83 12.42Q69.71 12.34 69.58 12.31L69.58 12.31L69.58 12.31Q69.45 12.28 69.34 12.24L69.34 12.24L69.34 12.24Q69.23 12.21 69.15 12.14L69.15 12.14L69.15 12.14Q69.08 12.08 69.08 11.93L69.08 11.93L69.08 11.93Q69.08 11.15 69.88 10.80L69.88 10.80L69.88 10.80Q70.69 10.46 72.21 10.46L72.21 10.46L72.21 10.46Q72.73 10.46 73.08 10.55L73.08 10.55L73.08 10.55Q73.42 10.65 73.65 10.82L73.65 10.82L73.65 10.82Q73.88 10.99 74.01 11.23L74.01 11.23L74.01 11.23Q74.14 11.47 74.19 11.76L74.19 11.76L74.19 11.76Q74.25 12.05 74.26 12.38L74.26 12.38L74.26 12.38Q74.27 12.71 74.27 13.06L74.27 13.06L74.27 16.73L74.27 16.73Q74.27 17.00 74.34 17.15L74.34 17.15L74.34 17.15Q74.42 17.30 74.53 17.38L74.53 17.38L74.53 17.38Q74.64 17.46 74.77 17.49L74.77 17.49L74.77 17.49Q74.89 17.51 75.01 17.55L75.01 17.55L75.01 17.55Q75.12 17.58 75.19 17.65L75.19 17.65L75.19 17.65Q75.26 17.71 75.26 17.86L75.26 17.86L75.26 17.86Q75.26 18.64 74.47 18.99L74.47 18.99L74.47 18.99Q73.68 19.33 72.21 19.33L72.21 19.33L72.21 19.33Q71.85 19.33 71.57 19.28L71.57 19.28L71.57 19.28Q71.29 19.22 71.08 19.13L71.08 19.13L71.08 19.13Q70.88 19.04 70.72 18.93L70.72 18.93L70.72 18.93Q70.57 18.82 70.47 18.70L70.47 18.70L70.47 18.70Q70.23 18.42 70.17 18.06L70.17 18.06L70.17 18.06Q69.82 18.46 69.33 18.78L69.33 18.78L69.33 18.78Q69.13 18.92 68.87 19.04L68.87 19.04L68.87 19.04Q68.61 19.17 68.30 19.27L68.30 19.27L68.30 19.27Q67.99 19.37 67.63 19.43L67.63 19.43L67.63 19.43Q67.27 19.49 66.87 19.49L66.87 19.49L66.87 19.49Q66.12 19.49 65.57 19.30L65.57 19.30L65.57 19.30Q65.02 19.11 64.64 18.80L64.64 18.80L64.64 18.80Q64.26 18.48 64.03 18.07L64.03 18.07L64.03 18.07Q63.80 17.65 63.67 17.19L63.67 17.19L63.67 17.19Q63.54 16.73 63.50 16.27L63.50 16.27L63.50 16.27Q63.45 15.80 63.45 15.37L63.45 15.37L63.45 13.13L63.45 13.13Q63.45 12.84 63.38 12.68L63.38 12.68L63.38 12.68Q63.30 12.52 63.18 12.43L63.18 12.43L63.18 12.43Q63.07 12.35 62.94 12.31L62.94 12.31L62.94 12.31Q62.81 12.28 62.69 12.25L62.69 12.25L62.69 12.25Q62.58 12.21 62.50 12.14L62.50 12.14L62.50 12.14Q62.43 12.08 62.43 11.93L62.43 11.93L62.43 11.93Q62.43 11.15 63.23 10.80L63.23 10.80L63.23 10.80Q64.04 10.46 65.56 10.46L65.56 10.46L65.56 10.46Q66.24 10.46 66.64 10.62L66.64 10.62L66.64 10.62Q67.05 10.79 67.26 11.07L67.26 11.07L67.26 11.07Q67.47 11.35 67.53 11.74L67.53 11.74L67.53 11.74Q67.59 12.13 67.59 12.58L67.59 12.58L67.59 15.96L67.59 15.96Q67.59 16.39 67.66 16.72L67.66 16.72L67.66 16.72Q67.72 17.05 67.88 17.28L67.88 17.28L67.88 17.28Q68.03 17.51 68.28 17.63L68.28 17.63L68.28 17.63Q68.54 17.75 68.91 17.75L68.91 17.75L68.91 17.75Q69.15 17.75 69.36 17.68L69.36 17.68L69.36 17.68Q69.58 17.60 69.73 17.47L69.73 17.47L69.73 17.47Q69.89 17.33 69.98 17.14L69.98 17.14L69.98 17.14Q70.08 16.95 70.08 16.73L70.08 16.73ZM81.12 8.02L81.11 11.14L81.11 11.14Q81.30 10.99 81.56 10.83L81.56 10.83L81.56 10.83Q81.81 10.67 82.15 10.54L82.15 10.54L82.15 10.54Q82.48 10.42 82.91 10.34L82.91 10.34L82.91 10.34Q83.33 10.26 83.86 10.26L83.86 10.26L83.86 10.26Q84.55 10.26 85.08 10.46L85.08 10.46L85.08 10.46Q85.61 10.66 86.00 11.00L86.00 11.00L86.00 11.00Q86.39 11.33 86.66 11.79L86.66 11.79L86.66 11.79Q86.93 12.25 87.09 12.77L87.09 12.77L87.09 12.77Q87.25 13.29 87.32 13.84L87.32 13.84L87.32 13.84Q87.38 14.40 87.38 14.94L87.38 14.94L87.38 14.94Q87.38 15.51 87.29 16.07L87.29 16.07L87.29 16.07Q87.20 16.63 87.01 17.14L87.01 17.14L87.01 17.14Q86.82 17.64 86.53 18.07L86.53 18.07L86.53 18.07Q86.24 18.50 85.83 18.82L85.83 18.82L85.83 18.82Q85.43 19.13 84.91 19.31L84.91 19.31L84.91 19.31Q84.40 19.49 83.75 19.49L83.75 19.49L83.75 19.49Q83.16 19.49 82.70 19.39L82.70 19.39L82.70 19.39Q82.24 19.29 81.88 19.14L81.88 19.14L81.88 19.14Q81.53 18.99 81.28 18.81L81.28 18.81L81.28 18.81Q81.03 18.63 80.87 18.46L80.87 18.46L80.87 18.46Q80.77 18.66 80.62 18.82L80.62 18.82L80.62 18.82Q80.47 18.98 80.25 19.09L80.25 19.09L80.25 19.09Q80.02 19.20 79.70 19.26L79.70 19.26L79.70 19.26Q79.39 19.32 78.97 19.32L78.97 19.32L78.97 19.32Q78.23 19.32 77.66 19.24L77.66 19.24L77.66 19.24Q77.10 19.15 76.71 18.97L76.71 18.97L76.71 18.97Q76.32 18.79 76.11 18.52L76.11 18.52L76.11 18.52Q75.91 18.24 75.91 17.85L75.91 17.85L75.91 17.85Q75.91 17.70 75.99 17.63L75.99 17.63L75.99 17.63Q76.06 17.57 76.17 17.53L76.17 17.53L76.17 17.53Q76.28 17.50 76.41 17.47L76.41 17.47L76.41 17.47Q76.54 17.45 76.65 17.37L76.65 17.37L76.65 17.37Q76.76 17.29 76.84 17.14L76.84 17.14L76.84 17.14Q76.91 16.99 76.91 16.71L76.91 16.71L76.91 9.03L76.91 9.03Q76.91 8.75 76.84 8.60L76.84 8.60L76.84 8.60Q76.76 8.46 76.65 8.38L76.65 8.38L76.65 8.38Q76.54 8.30 76.41 8.27L76.41 8.27L76.41 8.27Q76.28 8.24 76.17 8.21L76.17 8.21L76.17 8.21Q76.06 8.18 75.99 8.11L75.99 8.11L75.99 8.11Q75.91 8.05 75.91 7.90L75.91 7.90L75.91 7.90Q75.91 7.51 76.11 7.23L76.11 7.23L76.11 7.23Q76.32 6.95 76.71 6.77L76.71 6.77L76.71 6.77Q77.10 6.59 77.66 6.51L77.66 6.51L77.66 6.51Q78.23 6.43 78.97 6.43L78.97 6.43L78.97 6.43Q79.71 6.43 80.13 6.50L80.13 6.50L80.13 6.50Q80.56 6.58 80.78 6.76L80.78 6.76L80.78 6.76Q81.00 6.94 81.06 7.25L81.06 7.25L81.06 7.25Q81.12 7.55 81.12 8.02L81.12 8.02ZM81.92 12.01L81.92 12.01L81.92 12.01Q81.68 12.01 81.47 12.09L81.47 12.09L81.47 12.09Q81.27 12.17 81.09 12.29L81.09 12.29L81.09 16.69L81.09 16.69Q81.09 16.88 81.09 17.08L81.09 17.08L81.09 17.08Q81.09 17.27 81.08 17.45L81.08 17.45L81.08 17.45Q81.27 17.56 81.51 17.66L81.51 17.66L81.51 17.66Q81.75 17.75 82.04 17.75L82.04 17.75L82.04 17.75Q82.43 17.75 82.64 17.62L82.64 17.62L82.64 17.62Q82.84 17.49 82.94 17.17L82.94 17.17L82.94 17.17Q83.04 16.84 83.05 16.31L83.05 16.31L83.05 16.31Q83.07 15.77 83.07 14.96L83.07 14.96L83.07 14.96Q83.07 14.12 83.01 13.55L83.01 13.55L83.01 13.55Q82.95 12.97 82.81 12.64L82.81 12.64L82.81 12.64Q82.67 12.30 82.46 12.15L82.46 12.15L82.46 12.15Q82.24 12.01 81.92 12.01Z"></path></g><defs data-v-fde0c5aa=""><!----></defs><g data-v-fde0c5aa="" id="fc69e48c-c544-47ab-bd80-3f510d731692" stroke="none" fill="#E9100D" transform="matrix(0.39855010703077,0,0,0.39855010703077,40.00023489376654,129.60439394148838)"><path d="M37.202 36.189l12.373-21.432-2.278-3.946a12.111 12.111 0 0 0-.541-.803l-.636 1.102a.694.694 0 0 1-1.202-.694l.911-1.576a17.335 17.335 0 0 0-1.527-1.557l-2.109 3.652a.694.694 0 0 1-1.2-.694l2.221-3.847a13.426 13.426 0 0 0-1.778-1.12l-3.168 5.488a.693.693 0 0 1-1.202-.694l3.104-5.374c-.66-.25-1.364-.439-2.104-.557l-3.725 6.451a.694.694 0 0 1-1.201-.693l3.399-5.886c-.886-.009-1.729.06-2.534.186l-3.592 6.221a.692.692 0 0 1-.947.253.691.691 0 0 1-.254-.946l2.964-5.134a16.44 16.44 0 0 0-3.147 1.25l-2.542 4.404a.694.694 0 1 1-1.201-.693l1.218-2.109c-1.959 1.479-3.089 2.919-3.247 3.128l-7.881 13.725c-.228.397-.234.754-.021 1.125.24.416.655.68.659.683l18.948 10.94c.216.119 1.37.652 2.24-.853z"></path><path d="M56.998 32.334l20.078 3.078 7.898-19.238c.043-.093-.013-.196-.029-.227a.635.635 0 0 0-.325-.276l-.78.451c-1.758 1.015-3.248-.053-3.821-1.019l-2.481-4.301c-.04-.064-3.955-6.681-10.642-6.802l-24.741.006c3.985 2.105 6.215 5.89 6.341 6.11L58.532 27.5c1.127 1.951-.026 3.186-.564 3.498l-.961.552c-.26.152-.311.504-.215.669.025.043.072.097.206.115zM69.669 46.882l12.373 21.431h4.557c.016 0 .384-.007.966-.067l-.637-1.103a.692.692 0 0 1 .256-.945.692.692 0 0 1 .946.254l.91 1.574a17.33 17.33 0 0 0 2.111-.542l-2.107-3.654a.69.69 0 0 1 .253-.946.695.695 0 0 1 .947.255l2.221 3.847a13.189 13.189 0 0 0 1.858-.981l-3.168-5.486c-.191-.334-.078-.756.255-.947s.755-.078.946.254l3.104 5.375a10.579 10.579 0 0 0 1.533-1.546l-3.724-6.45a.694.694 0 0 1 1.201-.693l3.396 5.886c.452-.76.813-1.525 1.108-2.285l-3.594-6.222a.693.693 0 1 1 1.202-.693l2.964 5.135c.295-1.159.445-2.288.491-3.35l-2.543-4.406a.695.695 0 0 1 1.201-.694l1.219 2.109c-.301-2.436-.984-4.133-1.087-4.375L90.882 33.93c-.229-.396-.537-.581-.964-.58a2.24 2.24 0 0 0-.921.228L70.051 44.516c-.212.128-1.251.859-.382 2.366z"></path><path d="M63.107 65.953L50.402 81.802l12.713 16.461c.059.082.175.086.211.086a.621.621 0 0 0 .402-.143l-.002-.901c.001-2.029 1.67-2.787 2.794-2.8h4.965c.077 0 7.766-.084 11.213-5.813L95.062 67.26c-3.814 2.402-8.207 2.439-8.462 2.439l-20.073-.001c-2.253.001-2.746-1.615-2.746-2.238l.001-1.107c-.001-.302-.281-.52-.47-.52-.052.001-.12.014-.205.12zM44.035 69.687H19.289l-2.278 3.946c-.009.015-.187.338-.426.869h1.272a.694.694 0 0 1 0 1.387h-1.819a17.313 17.313 0 0 0-.585 2.101h4.217a.694.694 0 0 1 0 1.386l-4.442-.001a13.329 13.329 0 0 0-.081 2.102h6.336a.693.693 0 1 1 0 1.386h-6.206c.113.696.301 1.4.571 2.101h7.447a.694.694 0 0 1 0 1.386h-6.797c.436.771.916 1.466 1.427 2.101h7.185a.69.69 0 0 1 .692.693.69.69 0 0 1-.692.693l-5.928-.001a16.377 16.377 0 0 0 2.655 2.102h5.086a.694.694 0 0 1 0 1.387h-2.436c2.26.958 4.073 1.215 4.333 1.248l15.826-.039c.458 0 .771-.172.985-.544.24-.414.261-.907.261-.912l.001-21.88c-.006-.244-.119-1.511-1.858-1.511z"></path><path d="M30.799 54.469l-7.374-18.927-20.61 2.779c-.101.01-.163.109-.181.14a.62.62 0 0 0-.077.419l.781.45c1.758 1.015 1.579 2.84 1.028 3.819l-2.483 4.3c-.038.067-3.81 6.768-.572 12.617L13.687 81.49c-.17-4.504 1.993-8.327 2.12-8.548l10.038-17.384c1.126-1.95 2.772-1.571 3.312-1.259l.958.555c.262.15.591.017.686-.148.026-.044.049-.109-.002-.237z"></path></g><!----></svg>